<svg width="13" height="15" viewBox="0 0 13 15" fill="none" xmlns="http://www.w3.org/2000/svg">
<path d="M3.5625 5.125V3.8125C3.58073 2.9375 3.88151 2.21745 4.46484 1.65234C5.02995 1.06901 5.75 0.768229 6.625 0.75C7.5 0.768229 8.22005 1.06901 8.78516 1.65234C9.36849 2.21745 9.66927 2.9375 9.6875 3.8125V5.125H11.4375C11.8021 5.14323 12.112 5.27083 12.3672 5.50781C12.6042 5.76302 12.7318 6.07292 12.75 6.4375V12.125C12.7318 12.8724 12.4766 13.4922 11.9844 13.9844C11.4922 14.4766 10.8724 14.7318 10.125 14.75H3.125C2.3776 14.7318 1.75781 14.4766 1.26562 13.9844C0.773438 13.4922 0.518229 12.8724 0.5 12.125V6.4375C0.518229 6.07292 0.645833 5.76302 0.882812 5.50781C1.13802 5.27083 1.44792 5.14323 1.8125 5.125H3.5625ZM4.875 5.125H8.375V3.8125C8.35677 3.32031 8.18359 2.91016 7.85547 2.58203C7.52734 2.25391 7.11719 2.08073 6.625 2.0625C6.13281 2.08073 5.72266 2.25391 5.39453 2.58203C5.06641 2.91016 4.89323 3.32031 4.875 3.8125V5.125ZM1.8125 6.4375V12.125C1.83073 12.4896 1.95833 12.7995 2.19531 13.0547C2.45052 13.2917 2.76042 13.4193 3.125 13.4375H10.125C10.4896 13.4193 10.7995 13.2917 11.0547 13.0547C11.2917 12.7995 11.4193 12.4896 11.4375 12.125V6.4375H9.6875V7.96875C9.65104 8.36979 9.43229 8.58854 9.03125 8.625C8.63021 8.58854 8.41146 8.36979 8.375 7.96875V6.4375H4.875V7.96875C4.83854 8.36979 4.61979 8.58854 4.21875 8.625C3.81771 8.58854 3.59896 8.36979 3.5625 7.96875V6.4375H1.8125Z" fill="white"/>
</svg>
