<svg width="20" height="20" viewBox="0 0 20 20" fill="none" xmlns="http://www.w3.org/2000/svg">
<g clip-path="url(#clip0_1_484)">
<mask id="mask0_1_484" style="mask-type:luminance" maskUnits="userSpaceOnUse" x="0" y="0" width="20" height="20">
<path d="M20 0H0V20H20V0Z" fill="white"/>
</mask>
<g mask="url(#mask0_1_484)">
<path d="M4.68693 10.0166C4.54025 10.04 4.39692 10.0666 4.26025 10.09C4.7059 11.5707 5.48507 12.9296 6.53792 14.0622C7.59076 15.1948 8.88925 16.0709 10.3336 16.6233C11.9869 18.0133 12.7236 18.98 13.0503 19.55C13.1118 19.6557 13.1939 19.748 13.2918 19.8213C13.3898 19.8946 13.5014 19.9475 13.6203 19.9766C13.688 19.9924 13.7573 20.0002 13.8269 20C14.0001 20.0001 14.1694 19.9491 14.3136 19.8533C16.5379 18.341 18.2218 16.1585 19.1203 13.6233C19.1676 13.4753 19.1796 13.3184 19.1553 13.1649C19.1309 13.0115 19.071 12.8659 18.9803 12.7398C18.8895 12.6138 18.7704 12.5107 18.6327 12.439C18.4949 12.3672 18.3423 12.3287 18.1869 12.3266C16.6395 12.3042 15.0956 12.1716 13.5669 11.93C13.2373 11.2189 12.9967 10.4699 12.8503 9.69997L12.6669 9.69663H12.6603C12.4969 9.6933 8.94359 9.66663 8.75025 9.66997C8.79392 9.98722 8.8585 10.3012 8.94359 10.61C8.38392 10.3637 7.84739 10.0681 7.34026 9.72663C7.00026 9.74663 6.66693 9.76997 6.34026 9.8033C7.21583 10.5088 8.19961 11.0682 9.25359 11.46C9.35334 11.6745 9.47392 11.8789 9.61359 12.07C9.65817 12.1328 9.67725 12.2102 9.66692 12.2866C9.65284 12.3736 9.60492 12.4515 9.53359 12.5033L8.93359 12.94C7.73301 12.5397 6.57867 12.0123 5.49025 11.3666C5.2695 10.917 5.08015 10.4525 4.9236 9.97663L4.68693 10.0166ZM13.9436 19.2966C13.9182 19.3132 13.8895 19.3244 13.8595 19.3294C13.8295 19.3344 13.7988 19.333 13.7693 19.3255C13.7398 19.318 13.7123 19.3045 13.6883 19.2857C13.6644 19.267 13.6446 19.2434 13.6303 19.2166C13.1345 18.4207 12.5298 17.6981 11.8336 17.07C12.8669 17.2969 13.9223 17.4087 14.9803 17.4033C15.3636 17.4033 15.7569 17.3833 16.1569 17.36C15.5079 18.1005 14.7637 18.7516 13.9436 19.2966ZM13.5936 13.71C13.6998 13.6321 13.7895 13.534 13.8576 13.4213C13.9257 13.3085 13.9708 13.1835 13.9903 13.0533C14.0105 12.9233 14.0037 12.7905 13.9703 12.6633C15.3643 12.8605 16.7693 12.9706 18.1769 12.9933C18.228 12.994 18.2782 13.0066 18.3233 13.0305C18.3685 13.0542 18.4074 13.0883 18.4369 13.13C18.4676 13.1715 18.4881 13.2197 18.4968 13.2707C18.5055 13.3216 18.5021 13.3739 18.4869 13.4233C18.3865 13.732 18.2686 14.0347 18.1336 14.33C16.4891 14.3269 14.847 14.2044 13.2203 13.9633L13.5936 13.71ZM12.4203 14.51C14.199 14.8141 15.9992 14.9758 17.8036 14.9933C17.4634 15.6246 17.0698 16.2258 16.6269 16.79L16.6169 16.6566C14.598 16.8955 12.5513 16.6791 10.6269 16.0233C10.5336 15.99 10.4503 15.95 10.3603 15.9133L12.4203 14.51ZM8.28026 13.4166L7.43359 14.03C6.94895 13.565 6.5164 13.0486 6.1436 12.49C6.83613 12.8424 7.5497 13.1519 8.28026 13.4166Z" fill="white"/>
<path d="M18.7595 8.53906L17.2862 8.32902C17.2069 8.31773 17.1343 8.27826 17.0818 8.21785C17.0292 8.15744 17.0001 8.08011 16.9998 8.00002C16.9978 6.05572 16.2246 4.19164 14.8498 2.81681C13.4749 1.44199 11.6108 0.668716 9.6665 0.666687H7.99986C6.05556 0.668716 4.19148 1.44199 2.81665 2.81681C1.44182 4.19164 0.668553 6.05572 0.666524 8.00002V10.0981C0.666016 10.1367 0.675139 10.1749 0.693073 10.2092C0.711007 10.2435 0.737188 10.2728 0.769259 10.2945C0.80133 10.3161 0.838283 10.3295 0.876792 10.3333C0.9153 10.3371 0.954158 10.3313 0.989858 10.3163C2.14634 9.86515 3.34957 9.5444 4.57719 9.35998L4.48286 8.6444C4.43561 8.29985 4.52448 7.95048 4.73061 7.67042C4.93673 7.39036 5.24388 7.20165 5.58686 7.14435C7.70769 6.83177 9.84817 6.67103 11.9918 6.66335C12.1678 6.65965 12.3428 6.69144 12.5063 6.75684C12.6698 6.82225 12.8183 6.91991 12.9432 7.04402C13.0703 7.16794 13.1712 7.31612 13.2398 7.47977C13.3086 7.64341 13.3437 7.8192 13.3432 7.99669L13.3382 9.04431C16.4145 9.11531 18.5142 9.24865 19.2298 9.2994C19.2429 9.30065 19.256 9.2989 19.2683 9.2944C19.2806 9.2899 19.2917 9.28273 19.3008 9.27331C19.3109 9.26398 19.319 9.25265 19.3246 9.23998C19.3301 9.2274 19.3331 9.21381 19.3332 9.19998C19.3293 9.04031 19.2699 8.88698 19.1653 8.76631C19.0606 8.64573 18.9171 8.56531 18.7595 8.53906Z" fill="white"/>
<path d="M9.33358 8.99998C10.5358 8.99998 11.6486 9.01106 12.6719 9.03331L12.6769 7.99795C12.677 7.90938 12.6593 7.8217 12.625 7.74006C12.5906 7.65842 12.5402 7.58449 12.4769 7.52261C12.3542 7.40102 12.1883 7.33285 12.0156 7.33295H12.0036C9.89167 7.34011 7.783 7.49795 5.69358 7.80528C5.52138 7.83237 5.36692 7.92656 5.26397 8.06723C5.16103 8.20791 5.11798 8.38365 5.14425 8.55598L5.23725 9.26365C6.59517 9.08331 7.96375 8.99523 9.33358 8.99998Z" fill="white"/>
</g>
</g>
<defs>
<clipPath id="clip0_1_484">
<rect width="20" height="20" fill="white"/>
</clipPath>
</defs>
</svg>
