<svg width="15" height="15" viewBox="0 0 15 15" fill="none" xmlns="http://www.w3.org/2000/svg">
<path d="M14.2812 13.6289C14.5547 13.9388 14.5638 14.2487 14.3086 14.5586C14.181 14.6862 14.026 14.75 13.8438 14.75C13.6797 14.75 13.5156 14.6862 13.3516 14.5586L9.6875 10.8945C8.70312 11.6966 7.52734 12.1068 6.16016 12.125C4.55599 12.0885 3.22526 11.5326 2.16797 10.457C1.09245 9.38151 0.536458 8.04167 0.5 6.4375C0.536458 4.83333 1.08333 3.49349 2.14062 2.41797C3.21615 1.34245 4.55599 0.786458 6.16016 0.75C7.76432 0.786458 9.10417 1.34245 10.1797 2.41797C11.2552 3.49349 11.8112 4.83333 11.8477 6.4375C11.8294 7.78646 11.4193 8.96224 10.6172 9.96484L14.2812 13.6289ZM1.8125 6.4375C1.84896 7.67708 2.27734 8.70703 3.09766 9.52734C3.91797 10.3477 4.94792 10.776 6.1875 10.8125C7.42708 10.776 8.45703 10.3477 9.27734 9.52734C10.0977 8.70703 10.526 7.67708 10.5625 6.4375C10.526 5.19792 10.0977 4.16797 9.27734 3.34766C8.45703 2.52734 7.42708 2.09896 6.1875 2.0625C4.94792 2.09896 3.91797 2.52734 3.09766 3.34766C2.27734 4.16797 1.84896 5.19792 1.8125 6.4375Z" fill="white"/>
</svg>
